<?xml version="1.0" encoding="iso-8859-1"?>
<!-- Uploaded to: SVG Repo, www.svgrepo.com, Generator: SVG Repo Mixer Tools -->
<!DOCTYPE svg PUBLIC "-//W3C//DTD SVG 1.1//EN" "http://www.w3.org/Graphics/SVG/1.1/DTD/svg11.dtd">
<svg fill="#000000" height="800px" width="800px" version="1.1" id="Capa_1" xmlns="http://www.w3.org/2000/svg" xmlns:xlink="http://www.w3.org/1999/xlink" 
	 viewBox="0 0 195.691 195.691" xml:space="preserve">
<path d="M189.296,6.463c-0.703-1.329-1.79-2.415-3.118-3.119C185.531,3.002,179.624,0,171.448,0
	c-9.009,0-17.408,3.636-24.287,10.516L84.826,72.851l-18.864,0.187c-15.189,0.151-29.47,6.148-40.21,16.889
	c-2.929,2.929-2.929,7.678,0,10.606l20.999,20.999l0.1,0.1l-6.299,6.299c-2.929,2.929-2.929,7.678,0,10.606
	c1.464,1.464,3.384,2.197,5.303,2.197s3.839-0.732,5.303-2.197l6.299-6.299L71.11,145.89l20.999,20.999
	c1.406,1.407,3.314,2.197,5.303,2.197s3.897-0.79,5.303-2.197c10.741-10.741,16.739-25.021,16.889-40.21l0.187-18.864l62.335-62.335
	C196.519,31.087,193.11,13.665,189.296,6.463z M66.111,88.036l3.565-0.035l-17.621,17.621l-9.93-9.93
	C49.116,90.801,57.412,88.123,66.111,88.036z M104.605,126.531c-0.086,8.699-2.764,16.995-7.656,23.985l-9.93-9.929l17.621-17.621
	L104.605,126.531z M10.578,176.011c-1.919,0-3.839-0.732-5.303-2.197c-2.929-2.929-2.929-7.678,0-10.606l20.483-20.483
	c2.929-2.929,7.678-2.929,10.606,0c2.929,2.929,2.929,7.678,0,10.606l-20.483,20.483C14.416,175.279,12.497,176.011,10.578,176.011z
	 M18.003,195.691c-1.919,0-3.839-0.732-5.303-2.197c-2.929-2.929-2.929-7.678,0-10.606l37.846-37.846
	c2.929-2.929,7.678-2.929,10.606,0c2.929,2.929,2.929,7.678,0,10.606l-37.846,37.846C21.842,194.959,19.922,195.691,18.003,195.691z
	"/>
</svg>